<?xml version="1.0" encoding="UTF-8"?>
<svg width="1200" height="800" xmlns="http://www.w3.org/2000/svg">
  <!-- Title -->
  <rect x="0" y="0" width="1200" height="70" fill="#34495e"/>
  <text x="600" y="45" text-anchor="middle" font-size="28" font-weight="bold" fill="white">
    CardioBot MVP - Component Interaction Sequence
  </text>

  <!-- Lifelines -->
  <g transform="translate(50,100)">
    <!-- Components -->
    <rect x="50" y="0" width="120" height="50" fill="#3498db" rx="5"/>
    <text x="110" y="30" text-anchor="middle" fill="white">React Frontend</text>
    <line x1="110" y1="50" x2="110" y2="650" stroke="#95a5a6" stroke-dasharray="5,5"/>

    <rect x="250" y="0" width="120" height="50" fill="#2ecc71" rx="5"/>
    <text x="310" y="30" text-anchor="middle" fill="white">Django API</text>
    <line x1="310" y1="50" x2="310" y2="650" stroke="#95a5a6" stroke-dasharray="5,5"/>

    <rect x="450" y="0" width="120" height="50" fill="#e74c3c" rx="5"/>
    <text x="510" y="30" text-anchor="middle" fill="white">PostgreSQL</text>
    <line x1="510" y1="50" x2="510" y2="650" stroke="#95a5a6" stroke-dasharray="5,5"/>

    <rect x="650" y="0" width="120" height="50" fill="#9b59b6" rx="5"/>
    <text x="710" y="30" text-anchor="middle" fill="white">Watson AI</text>
    <line x1="710" y1="50" x2="710" y2="650" stroke="#95a5a6" stroke-dasharray="5,5"/>

    <rect x="850" y="0" width="120" height="50" fill="#f1c40f" rx="5"/>
    <text x="910" y="30" text-anchor="middle" fill="white">FranceConnect+</text>
    <line x1="910" y1="50" x2="910" y2="650" stroke="#95a5a6" stroke-dasharray="5,5"/>

    <!-- Interactions -->
    <!-- Login Flow -->
    <g fill="none" stroke="#34495e" stroke-width="2" marker-end="url(#arrow)">
      <path d="M 110,100 L 910,130"/>
      <path d="M 910,160 L 310,190"/>
      <path d="M 310,220 L 510,250"/>
      <path d="M 510,280 L 310,310"/>
      <path d="M 310,340 L 110,370"/>
    </g>

    <!-- AI Consultation Flow -->
    <g fill="none" stroke="#34495e" stroke-width="2" marker-end="url(#arrow)">
      <path d="M 110,400 L 310,430"/>
      <path d="M 310,460 L 710,490"/>
      <path d="M 710,520 L 310,550"/>
      <path d="M 310,580 L 510,610"/>
      <path d="M 310,640 L 110,670"/>
    </g>

    <!-- Interaction Labels -->
    <g font-size="12" fill="#2c3e50">
      <!-- Login Flow -->
      <text x="500" y="120">1. User Authentication Request</text>
      <text x="500" y="180">2. Validate Credentials</text>
      <text x="500" y="240">3. Store Session</text>
      <text x="500" y="300">4. Return Token</text>
      <text x="500" y="360">5. Login Success</text>

      <!-- AI Consultation Flow -->
      <text x="500" y="420">6. Send Medical Query</text>
      <text x="500" y="480">7. Process with AI</text>
      <text x="500" y="540">8. Return Analysis</text>
      <text x="500" y="600">9. Store Consultation</text>
      <text x="500" y="660">10. Display Results</text>
    </g>
  </g>

  <!-- Arrow Marker -->
  <defs>
    <marker id="arrow" markerWidth="10" markerHeight="7" refX="9" refY="3.5" orient="auto">
      <polygon points="0 0, 10 3.5, 0 7" fill="#34495e"/>
    </marker>
  </defs>

  <!-- Legend -->
  <g transform="translate(50,780)">
    <text font-size="14" font-weight="bold">Key Interactions:</text>
    <text x="200" y="0" font-size="12">• Authentication Flow (1-5)</text>
    <text x="400" y="0" font-size="12">• AI Consultation Flow (6-10)</text>
    <text x="600" y="0" font-size="12">• All communications via HTTPS</text>
    <text x="800" y="0" font-size="12">• Real-time data processing</text>
  </g>
</svg>
